<svg data-v-fde0c5aa="" xmlns="http://www.w3.org/2000/svg" viewBox="0 0 300 300" class="font"><!----><defs data-v-fde0c5aa=""><!----></defs><rect data-v-fde0c5aa="" fill="transparent" x="0" y="0" width="300px" height="300px" class="logo-background-square"></rect><defs data-v-fde0c5aa=""><linearGradient data-v-fde0c5aa="" gradientTransform="rotate(25)" id="09a16445-29e4-432b-9e40-33c8473fd684" x1="0%" y1="0%" x2="100%" y2="0%"><stop data-v-fde0c5aa="" offset="0%" stop-color="#410FF8" stop-opacity="1"></stop><stop data-v-fde0c5aa="" offset="100%" stop-color="#410FF8" stop-opacity="1"></stop></linearGradient></defs><g data-v-fde0c5aa="" id="4103b022-b7ee-4fba-8169-8e97a3672446" fill="url(#09a16445-29e4-432b-9e40-33c8473fd684)" transform="matrix(3.213086323815959,0,0,3.213086323815959,38.23280248359825,121.3714005790184)"><path d="M3.09 11.55L3.09 11.55L3.09 11.55Q3.67 11.55 3.91 11.44L3.91 11.44L3.91 11.44Q4.14 11.33 4.14 11.00L4.14 11.00L4.14 11.00Q4.14 10.75 3.84 10.56L3.84 10.56L3.84 10.56Q3.53 10.37 2.90 10.14L2.90 10.14L2.90 10.14Q2.41 9.95 2.01 9.76L2.01 9.76L2.01 9.76Q1.61 9.56 1.33 9.29L1.33 9.29L1.33 9.29Q1.05 9.02 0.90 8.64L0.90 8.64L0.90 8.64Q0.74 8.26 0.74 7.73L0.74 7.73L0.74 7.73Q0.74 6.69 1.51 6.09L1.51 6.09L1.51 6.09Q2.28 5.49 3.63 5.49L3.63 5.49L3.63 5.49Q4.30 5.49 4.91 5.61L4.91 5.61L4.91 5.61Q5.53 5.73 5.89 5.87L5.89 5.87L5.53 7.49L5.53 7.49Q5.17 7.36 4.74 7.27L4.74 7.27L4.74 7.27Q4.31 7.17 3.78 7.17L3.78 7.17L3.78 7.17Q2.80 7.17 2.80 7.71L2.80 7.71L2.80 7.71Q2.80 7.84 2.84 7.94L2.84 7.94L2.84 7.94Q2.88 8.04 3.01 8.13L3.01 8.13L3.01 8.13Q3.14 8.22 3.35 8.32L3.35 8.32L3.35 8.32Q3.57 8.43 3.91 8.55L3.91 8.55L3.91 8.55Q4.59 8.81 5.04 9.05L5.04 9.05L5.04 9.05Q5.49 9.30 5.75 9.58L5.75 9.58L5.75 9.58Q6.01 9.87 6.11 10.22L6.11 10.22L6.11 10.22Q6.22 10.57 6.22 11.03L6.22 11.03L6.22 11.03Q6.22 12.12 5.40 12.68L5.40 12.68L5.40 12.68Q4.58 13.24 3.08 13.24L3.08 13.24L3.08 13.24Q2.10 13.24 1.45 13.08L1.45 13.08L1.45 13.08Q0.80 12.91 0.55 12.80L0.55 12.80L0.90 11.10L0.90 11.10Q1.43 11.31 1.99 11.43L1.99 11.43L1.99 11.43Q2.55 11.55 3.09 11.55ZM7.42 9.42L7.42 9.42L7.42 9.42Q7.42 8.44 7.72 7.71L7.72 7.71L7.72 7.71Q8.02 6.97 8.51 6.48L8.51 6.48L8.51 6.48Q9.00 5.99 9.64 5.74L9.64 5.74L9.64 5.74Q10.28 5.49 10.95 5.49L10.95 5.49L10.95 5.49Q12.52 5.49 13.43 6.45L13.43 6.45L13.43 6.45Q14.34 7.41 14.34 9.27L14.34 9.27L14.34 9.27Q14.34 9.45 14.32 9.67L14.32 9.67L14.32 9.67Q14.31 9.88 14.29 10.05L14.29 10.05L9.56 10.05L9.56 10.05Q9.63 10.70 10.16 11.07L10.16 11.07L10.16 11.07Q10.70 11.45 11.59 11.45L11.59 11.45L11.59 11.45Q12.17 11.45 12.72 11.35L12.72 11.35L12.72 11.35Q13.27 11.24 13.62 11.09L13.62 11.09L13.90 12.78L13.90 12.78Q13.73 12.87 13.45 12.95L13.45 12.95L13.45 12.95Q13.17 13.03 12.83 13.10L12.83 13.10L12.83 13.10Q12.49 13.16 12.10 13.20L12.10 13.20L12.10 13.20Q11.70 13.24 11.31 13.24L11.31 13.24L11.31 13.24Q10.32 13.24 9.58 12.95L9.58 12.95L9.58 12.95Q8.85 12.66 8.37 12.14L8.37 12.14L8.37 12.14Q7.88 11.63 7.65 10.93L7.65 10.93L7.65 10.93Q7.42 10.23 7.42 9.42ZM9.56 8.62L12.32 8.62L12.32 8.62Q12.31 8.36 12.23 8.11L12.23 8.11L12.23 8.11Q12.15 7.85 11.99 7.66L11.99 7.66L11.99 7.66Q11.83 7.46 11.59 7.34L11.59 7.34L11.59 7.34Q11.34 7.21 10.98 7.21L10.98 7.21L10.98 7.21Q10.63 7.21 10.37 7.33L10.37 7.33L10.37 7.33Q10.12 7.45 9.95 7.64L9.95 7.64L9.95 7.64Q9.79 7.84 9.70 8.10L9.70 8.10L9.70 8.10Q9.60 8.36 9.56 8.62L9.56 8.62ZM20.66 9.42L20.66 9.42L20.66 9.42Q20.66 8.46 20.23 7.88L20.23 7.88L20.23 7.88Q19.80 7.29 18.94 7.29L18.94 7.29L18.94 7.29Q18.66 7.29 18.42 7.31L18.42 7.31L18.42 7.31Q18.19 7.34 18.03 7.36L18.03 7.36L18.03 11.13L18.03 11.13Q18.23 11.26 18.54 11.34L18.54 11.34L18.54 11.34Q18.86 11.42 19.18 11.42L19.18 11.42L19.18 11.42Q20.66 11.42 20.66 9.42ZM22.79 9.37L22.79 9.37L22.79 9.37Q22.79 10.22 22.58 10.92L22.58 10.92L22.58 10.92Q22.37 11.62 21.97 12.12L21.97 12.12L21.97 12.12Q21.56 12.63 20.96 12.91L20.96 12.91L20.96 12.91Q20.36 13.19 19.57 13.19L19.57 13.19L19.57 13.19Q19.14 13.19 18.76 13.10L18.76 13.10L18.76 13.10Q18.38 13.02 18.03 12.87L18.03 12.87L18.03 15.64L15.95 15.64L15.95 5.94L15.95 5.94Q16.23 5.85 16.59 5.77L16.59 5.77L16.59 5.77Q16.95 5.70 17.35 5.64L17.35 5.64L17.35 5.64Q17.75 5.59 18.17 5.55L18.17 5.55L18.17 5.55Q18.58 5.52 18.96 5.52L18.96 5.52L18.96 5.52Q19.87 5.52 20.58 5.79L20.58 5.79L20.58 5.79Q21.29 6.06 21.78 6.56L21.78 6.56L21.78 6.56Q22.27 7.06 22.53 7.77L22.53 7.77L22.53 7.77Q22.79 8.48 22.79 9.37ZM27.22 11.59L27.22 11.59L27.22 11.59Q27.52 11.59 27.80 11.58L27.80 11.58L27.80 11.58Q28.08 11.56 28.25 11.54L28.25 11.54L28.25 9.95L28.25 9.95Q28.13 9.93 27.87 9.90L27.87 9.90L27.87 9.90Q27.62 9.87 27.41 9.87L27.41 9.87L27.41 9.87Q27.12 9.87 26.86 9.90L26.86 9.90L26.86 9.90Q26.60 9.94 26.40 10.04L26.40 10.04L26.40 10.04Q26.21 10.14 26.10 10.30L26.10 10.30L26.10 10.30Q25.98 10.47 25.98 10.72L25.98 10.72L25.98 10.72Q25.98 11.21 26.31 11.40L26.31 11.40L26.31 11.40Q26.64 11.59 27.22 11.59ZM27.05 5.49L27.05 5.49L27.05 5.49Q27.97 5.49 28.59 5.70L28.59 5.70L28.59 5.70Q29.20 5.91 29.58 6.30L29.58 6.30L29.58 6.30Q29.95 6.69 30.10 7.25L30.10 7.25L30.10 7.25Q30.25 7.81 30.25 8.50L30.25 8.50L30.25 12.84L30.25 12.84Q29.81 12.94 29.01 13.07L29.01 13.07L29.01 13.07Q28.21 13.20 27.08 13.20L27.08 13.20L27.08 13.20Q26.36 13.20 25.78 13.08L25.78 13.08L25.78 13.08Q25.20 12.95 24.78 12.66L24.78 12.66L24.78 12.66Q24.36 12.38 24.14 11.91L24.14 11.91L24.14 11.91Q23.91 11.45 23.91 10.78L23.91 10.78L23.91 10.78Q23.91 10.14 24.17 9.69L24.17 9.69L24.17 9.69Q24.43 9.24 24.86 8.97L24.86 8.97L24.86 8.97Q25.30 8.71 25.86 8.59L25.86 8.59L25.86 8.59Q26.42 8.47 27.02 8.47L27.02 8.47L27.02 8.47Q27.43 8.47 27.74 8.50L27.74 8.50L27.74 8.50Q28.06 8.54 28.25 8.60L28.25 8.60L28.25 8.40L28.25 8.40Q28.25 7.87 27.93 7.55L27.93 7.55L27.93 7.55Q27.61 7.22 26.81 7.22L26.81 7.22L26.81 7.22Q26.28 7.22 25.76 7.30L25.76 7.30L25.76 7.30Q25.24 7.38 24.86 7.52L24.86 7.52L24.60 5.84L24.60 5.84Q24.78 5.78 25.05 5.72L25.05 5.72L25.05 5.72Q25.33 5.66 25.65 5.61L25.65 5.61L25.65 5.61Q25.97 5.56 26.33 5.52L26.33 5.52L26.33 5.52Q26.68 5.49 27.05 5.49ZM32.07 10.04L32.07 3.85L34.16 3.51L34.16 5.68L36.67 5.68L36.67 7.42L34.16 7.42L34.16 10.01L34.16 10.01Q34.16 10.67 34.39 11.06L34.39 11.06L34.39 11.06Q34.62 11.45 35.32 11.45L35.32 11.45L35.32 11.45Q35.66 11.45 36.02 11.39L36.02 11.39L36.02 11.39Q36.37 11.33 36.67 11.21L36.67 11.21L36.96 12.84L36.96 12.84Q36.58 12.99 36.12 13.10L36.12 13.10L36.12 13.10Q35.66 13.22 34.99 13.22L34.99 13.22L34.99 13.22Q34.13 13.22 33.57 12.98L33.57 12.98L33.57 12.98Q33.01 12.75 32.68 12.34L32.68 12.34L32.68 12.34Q32.34 11.93 32.21 11.34L32.21 11.34L32.21 11.34Q32.07 10.75 32.07 10.04L32.07 10.04ZM45.25 9.35L45.25 9.35L45.25 9.35Q45.25 10.22 45.00 10.94L45.00 10.94L45.00 10.94Q44.74 11.66 44.27 12.17L44.27 12.17L44.27 12.17Q43.79 12.68 43.13 12.96L43.13 12.96L43.13 12.96Q42.46 13.24 41.64 13.24L41.64 13.24L41.64 13.24Q40.82 13.24 40.16 12.96L40.16 12.96L40.16 12.96Q39.49 12.68 39.02 12.17L39.02 12.17L39.02 12.17Q38.54 11.66 38.28 10.94L38.28 10.94L38.28 10.94Q38.01 10.22 38.01 9.35L38.01 9.35L38.01 9.35Q38.01 8.48 38.28 7.77L38.28 7.77L38.28 7.77Q38.56 7.06 39.04 6.55L39.04 6.55L39.04 6.55Q39.52 6.05 40.19 5.77L40.19 5.77L40.19 5.77Q40.85 5.49 41.64 5.49L41.64 5.49L41.64 5.49Q42.43 5.49 43.10 5.77L43.10 5.77L43.10 5.77Q43.76 6.05 44.24 6.55L44.24 6.55L44.24 6.55Q44.72 7.06 44.98 7.77L44.98 7.77L44.98 7.77Q45.25 8.48 45.25 9.35ZM43.12 9.35L43.12 9.35L43.12 9.35Q43.12 8.39 42.73 7.83L42.73 7.83L42.73 7.83Q42.35 7.28 41.64 7.28L41.64 7.28L41.64 7.28Q40.92 7.28 40.53 7.83L40.53 7.83L40.53 7.83Q40.14 8.39 40.14 9.35L40.14 9.35L40.14 9.35Q40.14 10.32 40.53 10.88L40.53 10.88L40.53 10.88Q40.92 11.45 41.64 11.45L41.64 11.45L41.64 11.45Q42.35 11.45 42.73 10.88L42.73 10.88L42.73 10.88Q43.12 10.32 43.12 9.35ZM46.51 9.42L46.51 9.42L46.51 9.42Q46.51 8.44 46.81 7.71L46.81 7.71L46.81 7.71Q47.11 6.97 47.60 6.48L47.60 6.48L47.60 6.48Q48.09 5.99 48.73 5.74L48.73 5.74L48.73 5.74Q49.36 5.49 50.04 5.49L50.04 5.49L50.04 5.49Q51.60 5.49 52.51 6.45L52.51 6.45L52.51 6.45Q53.42 7.41 53.42 9.27L53.42 9.27L53.42 9.27Q53.42 9.45 53.41 9.67L53.41 9.67L53.41 9.67Q53.40 9.88 53.38 10.05L53.38 10.05L48.65 10.05L48.65 10.05Q48.72 10.70 49.25 11.07L49.25 11.07L49.25 11.07Q49.78 11.45 50.68 11.45L50.68 11.45L50.68 11.45Q51.25 11.45 51.81 11.35L51.81 11.35L51.81 11.35Q52.36 11.24 52.71 11.09L52.71 11.09L52.99 12.78L52.99 12.78Q52.82 12.87 52.54 12.95L52.54 12.95L52.54 12.95Q52.26 13.03 51.92 13.10L51.92 13.10L51.92 13.10Q51.58 13.16 51.18 13.20L51.18 13.20L51.18 13.20Q50.79 13.24 50.40 13.24L50.40 13.24L50.40 13.24Q49.41 13.24 48.67 12.95L48.67 12.95L48.67 12.95Q47.94 12.66 47.45 12.14L47.45 12.14L47.45 12.14Q46.97 11.63 46.74 10.93L46.74 10.93L46.74 10.93Q46.51 10.23 46.51 9.42ZM48.65 8.62L51.41 8.62L51.41 8.62Q51.39 8.36 51.32 8.11L51.32 8.11L51.32 8.11Q51.24 7.85 51.08 7.66L51.08 7.66L51.08 7.66Q50.92 7.46 50.67 7.34L50.67 7.34L50.67 7.34Q50.43 7.21 50.06 7.21L50.06 7.21L50.06 7.21Q49.71 7.21 49.46 7.33L49.46 7.33L49.46 7.33Q49.21 7.45 49.04 7.64L49.04 7.64L49.04 7.64Q48.87 7.84 48.78 8.10L48.78 8.10L48.78 8.10Q48.69 8.36 48.65 8.62L48.65 8.62ZM57.08 11.94L57.08 11.94L57.08 11.94Q57.08 12.57 56.68 12.90L56.68 12.90L56.68 12.90Q56.28 13.23 55.78 13.23L55.78 13.23L55.78 13.23Q55.27 13.23 54.87 12.90L54.87 12.90L54.87 12.90Q54.47 12.57 54.47 11.94L54.47 11.94L54.47 11.94Q54.47 11.31 54.87 10.98L54.87 10.98L54.87 10.98Q55.27 10.65 55.78 10.65L55.78 10.65L55.78 10.65Q56.28 10.65 56.68 10.98L56.68 10.98L56.68 10.98Q57.08 11.31 57.08 11.94ZM60.56 5.68L60.56 13.05L58.48 13.05L58.48 5.68L60.56 5.68ZM60.76 3.56L60.76 3.56L60.76 3.56Q60.76 4.13 60.39 4.46L60.39 4.46L60.39 4.46Q60.02 4.79 59.51 4.79L59.51 4.79L59.51 4.79Q59.01 4.79 58.64 4.46L58.64 4.46L58.64 4.46Q58.27 4.13 58.27 3.56L58.27 3.56L58.27 3.56Q58.27 2.98 58.64 2.65L58.64 2.65L58.64 2.65Q59.01 2.32 59.51 2.32L59.51 2.32L59.51 2.32Q60.02 2.32 60.39 2.65L60.39 2.65L60.39 2.65Q60.76 2.98 60.76 3.56ZM64.30 9.31L64.30 9.31L64.30 9.31Q64.30 10.28 64.74 10.86L64.74 10.86L64.74 10.86Q65.17 11.45 66.02 11.45L66.02 11.45L66.02 11.45Q66.30 11.45 66.54 11.43L66.54 11.43L66.54 11.43Q66.78 11.41 66.93 11.38L66.93 11.38L66.93 7.59L66.93 7.59Q66.74 7.46 66.42 7.38L66.42 7.38L66.42 7.38Q66.11 7.29 65.79 7.29L65.79 7.29L65.79 7.29Q64.30 7.29 64.30 9.31ZM69.02 2.18L69.02 12.81L69.02 12.81Q68.74 12.89 68.38 12.97L68.38 12.97L68.38 12.97Q68.01 13.05 67.61 13.10L67.61 13.10L67.61 13.10Q67.21 13.16 66.80 13.20L66.80 13.20L66.80 13.20Q66.39 13.23 66.01 13.23L66.01 13.23L66.01 13.23Q65.10 13.23 64.39 12.96L64.39 12.96L64.39 12.96Q63.67 12.70 63.18 12.20L63.18 12.20L63.18 12.20Q62.69 11.70 62.43 11.00L62.43 11.00L62.43 11.00Q62.17 10.29 62.17 9.41L62.17 9.41L62.17 9.41Q62.17 8.51 62.40 7.79L62.40 7.79L62.40 7.79Q62.62 7.07 63.04 6.57L63.04 6.57L63.04 6.57Q63.46 6.06 64.07 5.80L64.07 5.80L64.07 5.80Q64.68 5.53 65.46 5.53L65.46 5.53L65.46 5.53Q65.90 5.53 66.24 5.61L66.24 5.61L66.24 5.61Q66.58 5.70 66.93 5.85L66.93 5.85L66.93 2.52L69.02 2.18Z"></path></g><!----><!----></svg>